<mxfile host="app.diagrams.net" agent="Mozilla/5.0 (Windows NT 10.0; Win64; x64) AppleWebKit/537.36 (KHTML, like Gecko) Chrome/134.0.0.0 Safari/537.36" version="26.1.0">
  <diagram name="Page-1" id="671RRiFCWpEk_SXeamfu">
    <mxGraphModel dx="795" dy="1684" grid="1" gridSize="10" guides="1" tooltips="1" connect="1" arrows="1" fold="1" page="1" pageScale="1" pageWidth="827" pageHeight="1169" math="0" shadow="0">
      <root>
        <mxCell id="0" />
        <mxCell id="1" parent="0" />
        <mxCell id="kYReCTsqhSqgmGwsNXHj-63" style="edgeStyle=orthogonalEdgeStyle;rounded=0;orthogonalLoop=1;jettySize=auto;html=1;exitX=1;exitY=0.5;exitDx=0;exitDy=0;entryX=0;entryY=0.5;entryDx=0;entryDy=0;strokeColor=default;endArrow=none;endFill=0;" parent="1" source="kYReCTsqhSqgmGwsNXHj-41" target="kYReCTsqhSqgmGwsNXHj-62" edge="1">
          <mxGeometry relative="1" as="geometry" />
        </mxCell>
        <mxCell id="kYReCTsqhSqgmGwsNXHj-65" value="0 , n" style="edgeLabel;html=1;align=center;verticalAlign=middle;resizable=0;points=[];" parent="kYReCTsqhSqgmGwsNXHj-63" vertex="1" connectable="0">
          <mxGeometry y="2" relative="1" as="geometry">
            <mxPoint as="offset" />
          </mxGeometry>
        </mxCell>
        <mxCell id="kYReCTsqhSqgmGwsNXHj-41" value="film" style="swimlane;whiteSpace=wrap;html=1;fillColor=#FFFFFF;gradientColor=none;swimlaneLine=1;rounded=0;shadow=0;glass=0;startSize=23;" parent="1" vertex="1">
          <mxGeometry x="20" y="-140" width="250" height="165" as="geometry" />
        </mxCell>
        <mxCell id="kYReCTsqhSqgmGwsNXHj-42" value="AUTO_INCREMENT&lt;div&gt;VARCHAR&lt;/div&gt;&lt;div&gt;VARCHAR&lt;/div&gt;&lt;div&gt;VARCHAR&lt;/div&gt;&lt;div&gt;INT&lt;/div&gt;&lt;div&gt;BOOLEAN&lt;/div&gt;&lt;div&gt;INT&lt;/div&gt;&lt;div&gt;VARCHAR&lt;/div&gt;&lt;div&gt;BOOLEAN&lt;/div&gt;" style="text;html=1;align=center;verticalAlign=middle;resizable=0;points=[];autosize=1;strokeColor=none;fillColor=none;" parent="kYReCTsqhSqgmGwsNXHj-41" vertex="1">
          <mxGeometry x="110" y="25" width="130" height="140" as="geometry" />
        </mxCell>
        <mxCell id="kYReCTsqhSqgmGwsNXHj-43" value="id&lt;div&gt;title&lt;/div&gt;&lt;div style=&quot;&quot;&gt;actors&lt;/div&gt;&lt;div&gt;description&lt;/div&gt;&lt;div&gt;minAge&lt;/div&gt;&lt;div&gt;favorite&lt;/div&gt;&lt;div&gt;opinion&lt;/div&gt;&lt;div&gt;moviePoster&lt;/div&gt;&lt;div&gt;onView&lt;/div&gt;" style="text;html=1;align=left;verticalAlign=middle;resizable=0;points=[];autosize=1;strokeColor=none;fillColor=none;" parent="kYReCTsqhSqgmGwsNXHj-41" vertex="1">
          <mxGeometry x="10" y="25" width="90" height="140" as="geometry" />
        </mxCell>
        <mxCell id="kYReCTsqhSqgmGwsNXHj-59" value="session" style="swimlane;whiteSpace=wrap;html=1;fillColor=#FFFFFF;gradientColor=none;swimlaneLine=1;rounded=0;shadow=0;glass=0;" parent="1" vertex="1">
          <mxGeometry x="470" y="20" width="220" height="160" as="geometry" />
        </mxCell>
        <mxCell id="kYReCTsqhSqgmGwsNXHj-60" value="AUTO_INCREMENT&lt;div&gt;INT&lt;/div&gt;&lt;div&gt;DATE&lt;/div&gt;&lt;div&gt;DATE&lt;/div&gt;&lt;div&gt;DATE&lt;/div&gt;&lt;div&gt;INT&lt;/div&gt;&lt;div&gt;INT&lt;/div&gt;&lt;div&gt;VARCHAR&lt;/div&gt;" style="text;html=1;align=center;verticalAlign=middle;resizable=0;points=[];autosize=1;strokeColor=none;fillColor=none;" parent="kYReCTsqhSqgmGwsNXHj-59" vertex="1">
          <mxGeometry x="90" y="30" width="130" height="130" as="geometry" />
        </mxCell>
        <mxCell id="kYReCTsqhSqgmGwsNXHj-61" value="id&lt;div&gt;idFilm&lt;br&gt;&lt;div&gt;date&lt;/div&gt;&lt;/div&gt;&lt;div style=&quot;&quot;&gt;startHour&lt;/div&gt;&lt;div&gt;endHour&lt;/div&gt;&lt;div&gt;idCinema&lt;/div&gt;&lt;div&gt;idRoom&lt;/div&gt;&lt;div&gt;reservedSeats&lt;/div&gt;" style="text;html=1;align=left;verticalAlign=middle;resizable=0;points=[];autosize=1;strokeColor=none;fillColor=none;" parent="kYReCTsqhSqgmGwsNXHj-59" vertex="1">
          <mxGeometry x="10" y="30" width="100" height="130" as="geometry" />
        </mxCell>
        <mxCell id="kYReCTsqhSqgmGwsNXHj-64" style="edgeStyle=orthogonalEdgeStyle;rounded=0;orthogonalLoop=1;jettySize=auto;html=1;exitX=1;exitY=0.5;exitDx=0;exitDy=0;endArrow=classic;endFill=1;" parent="1" source="kYReCTsqhSqgmGwsNXHj-62" edge="1">
          <mxGeometry relative="1" as="geometry">
            <mxPoint x="470" y="90" as="targetPoint" />
          </mxGeometry>
        </mxCell>
        <mxCell id="kYReCTsqhSqgmGwsNXHj-66" value="0, 1" style="edgeLabel;html=1;align=center;verticalAlign=middle;resizable=0;points=[];" parent="kYReCTsqhSqgmGwsNXHj-64" vertex="1" connectable="0">
          <mxGeometry x="-0.1" y="1" relative="1" as="geometry">
            <mxPoint as="offset" />
          </mxGeometry>
        </mxCell>
        <mxCell id="kYReCTsqhSqgmGwsNXHj-62" value="est proposé par" style="ellipse;whiteSpace=wrap;html=1;" parent="1" vertex="1">
          <mxGeometry x="310" y="70" width="120" height="40" as="geometry" />
        </mxCell>
        <mxCell id="kYReCTsqhSqgmGwsNXHj-84" style="edgeStyle=orthogonalEdgeStyle;rounded=0;orthogonalLoop=1;jettySize=auto;html=1;exitX=0.5;exitY=0;exitDx=0;exitDy=0;entryX=0.5;entryY=1;entryDx=0;entryDy=0;endArrow=none;endFill=0;" parent="1" source="kYReCTsqhSqgmGwsNXHj-67" target="kYReCTsqhSqgmGwsNXHj-83" edge="1">
          <mxGeometry relative="1" as="geometry" />
        </mxCell>
        <mxCell id="kYReCTsqhSqgmGwsNXHj-86" value="1, 1" style="edgeLabel;html=1;align=center;verticalAlign=middle;resizable=0;points=[];" parent="kYReCTsqhSqgmGwsNXHj-84" vertex="1" connectable="0">
          <mxGeometry x="0.0444" y="-1" relative="1" as="geometry">
            <mxPoint as="offset" />
          </mxGeometry>
        </mxCell>
        <mxCell id="kYReCTsqhSqgmGwsNXHj-67" value="room" style="swimlane;whiteSpace=wrap;html=1;fillColor=#FFFFFF;gradientColor=none;swimlaneLine=1;rounded=0;shadow=0;glass=0;" parent="1" vertex="1">
          <mxGeometry x="450" y="400" width="200" height="120" as="geometry" />
        </mxCell>
        <mxCell id="kYReCTsqhSqgmGwsNXHj-68" value="AUTO_INCREMENT&lt;div&gt;VARCHAR&lt;/div&gt;&lt;div&gt;INT&lt;/div&gt;&lt;div&gt;&lt;span style=&quot;background-color: transparent; color: light-dark(rgb(0, 0, 0), rgb(255, 255, 255));&quot;&gt;INT&lt;/span&gt;&lt;/div&gt;&lt;div&gt;INT&lt;/div&gt;" style="text;html=1;align=center;verticalAlign=middle;resizable=0;points=[];autosize=1;strokeColor=none;fillColor=none;" parent="kYReCTsqhSqgmGwsNXHj-67" vertex="1">
          <mxGeometry x="70" y="30" width="130" height="90" as="geometry" />
        </mxCell>
        <mxCell id="kYReCTsqhSqgmGwsNXHj-69" value="id&lt;div&gt;name&lt;br&gt;&lt;div&gt;places&lt;/div&gt;&lt;/div&gt;&lt;div&gt;idCinema&lt;/div&gt;&lt;div&gt;idQuality&lt;/div&gt;" style="text;html=1;align=left;verticalAlign=middle;resizable=0;points=[];autosize=1;strokeColor=none;fillColor=none;" parent="kYReCTsqhSqgmGwsNXHj-67" vertex="1">
          <mxGeometry x="10" y="30" width="70" height="90" as="geometry" />
        </mxCell>
        <mxCell id="kYReCTsqhSqgmGwsNXHj-70" value="quality" style="swimlane;whiteSpace=wrap;html=1;fillColor=#FFFFFF;gradientColor=none;swimlaneLine=1;rounded=0;shadow=0;glass=0;" parent="1" vertex="1">
          <mxGeometry x="450" y="210" width="200" height="90" as="geometry" />
        </mxCell>
        <mxCell id="kYReCTsqhSqgmGwsNXHj-71" value="AUTO_INCREMENT&lt;div&gt;VARCHAR&lt;/div&gt;&lt;div&gt;INT&lt;/div&gt;" style="text;html=1;align=center;verticalAlign=middle;resizable=0;points=[];autosize=1;strokeColor=none;fillColor=none;" parent="kYReCTsqhSqgmGwsNXHj-70" vertex="1">
          <mxGeometry x="70" y="30" width="130" height="60" as="geometry" />
        </mxCell>
        <mxCell id="kYReCTsqhSqgmGwsNXHj-72" value="id&lt;div&gt;quality&lt;br&gt;&lt;div&gt;price&lt;/div&gt;&lt;/div&gt;" style="text;html=1;align=left;verticalAlign=middle;resizable=0;points=[];autosize=1;strokeColor=none;fillColor=none;" parent="kYReCTsqhSqgmGwsNXHj-70" vertex="1">
          <mxGeometry x="10" y="30" width="60" height="60" as="geometry" />
        </mxCell>
        <mxCell id="kYReCTsqhSqgmGwsNXHj-73" value="cinema" style="swimlane;whiteSpace=wrap;html=1;fillColor=#FFFFFF;gradientColor=none;swimlaneLine=1;rounded=0;shadow=0;glass=0;" parent="1" vertex="1">
          <mxGeometry x="70" y="410" width="200" height="70" as="geometry" />
        </mxCell>
        <mxCell id="kYReCTsqhSqgmGwsNXHj-74" value="AUTO_INCREMENT&lt;div&gt;VARCHAR&lt;/div&gt;" style="text;html=1;align=center;verticalAlign=middle;resizable=0;points=[];autosize=1;strokeColor=none;fillColor=none;" parent="kYReCTsqhSqgmGwsNXHj-73" vertex="1">
          <mxGeometry x="70" y="30" width="130" height="40" as="geometry" />
        </mxCell>
        <mxCell id="kYReCTsqhSqgmGwsNXHj-75" value="id&lt;div&gt;name&lt;/div&gt;" style="text;html=1;align=left;verticalAlign=middle;resizable=0;points=[];autosize=1;strokeColor=none;fillColor=none;" parent="kYReCTsqhSqgmGwsNXHj-73" vertex="1">
          <mxGeometry x="10" y="30" width="50" height="40" as="geometry" />
        </mxCell>
        <mxCell id="kYReCTsqhSqgmGwsNXHj-80" style="edgeStyle=orthogonalEdgeStyle;rounded=0;orthogonalLoop=1;jettySize=auto;html=1;exitX=1;exitY=0.5;exitDx=0;exitDy=0;entryX=0;entryY=0.5;entryDx=0;entryDy=0;endArrow=classic;endFill=1;" parent="1" source="kYReCTsqhSqgmGwsNXHj-76" target="kYReCTsqhSqgmGwsNXHj-67" edge="1">
          <mxGeometry relative="1" as="geometry" />
        </mxCell>
        <mxCell id="kYReCTsqhSqgmGwsNXHj-82" value="1, 1" style="edgeLabel;html=1;align=center;verticalAlign=middle;resizable=0;points=[];" parent="kYReCTsqhSqgmGwsNXHj-80" vertex="1" connectable="0">
          <mxGeometry y="-1" relative="1" as="geometry">
            <mxPoint as="offset" />
          </mxGeometry>
        </mxCell>
        <mxCell id="kYReCTsqhSqgmGwsNXHj-76" value="Est composé de" style="ellipse;whiteSpace=wrap;html=1;" parent="1" vertex="1">
          <mxGeometry x="310" y="440" width="100" height="40" as="geometry" />
        </mxCell>
        <mxCell id="kYReCTsqhSqgmGwsNXHj-78" style="edgeStyle=orthogonalEdgeStyle;rounded=0;orthogonalLoop=1;jettySize=auto;html=1;endArrow=none;endFill=0;" parent="1" source="kYReCTsqhSqgmGwsNXHj-74" target="kYReCTsqhSqgmGwsNXHj-76" edge="1">
          <mxGeometry relative="1" as="geometry" />
        </mxCell>
        <mxCell id="kYReCTsqhSqgmGwsNXHj-81" value="1, n" style="edgeLabel;html=1;align=center;verticalAlign=middle;resizable=0;points=[];" parent="kYReCTsqhSqgmGwsNXHj-78" vertex="1" connectable="0">
          <mxGeometry x="-0.1" y="2" relative="1" as="geometry">
            <mxPoint as="offset" />
          </mxGeometry>
        </mxCell>
        <mxCell id="kYReCTsqhSqgmGwsNXHj-83" value="Propose" style="ellipse;whiteSpace=wrap;html=1;" parent="1" vertex="1">
          <mxGeometry x="515" y="330" width="70" height="40" as="geometry" />
        </mxCell>
        <mxCell id="kYReCTsqhSqgmGwsNXHj-85" style="edgeStyle=orthogonalEdgeStyle;rounded=0;orthogonalLoop=1;jettySize=auto;html=1;entryX=0.236;entryY=1.033;entryDx=0;entryDy=0;entryPerimeter=0;endArrow=classic;endFill=1;" parent="1" source="kYReCTsqhSqgmGwsNXHj-83" target="kYReCTsqhSqgmGwsNXHj-71" edge="1">
          <mxGeometry relative="1" as="geometry" />
        </mxCell>
        <mxCell id="kYReCTsqhSqgmGwsNXHj-87" value="0, n" style="edgeLabel;html=1;align=center;verticalAlign=middle;resizable=0;points=[];" parent="kYReCTsqhSqgmGwsNXHj-85" vertex="1" connectable="0">
          <mxGeometry x="-0.1179" y="-1" relative="1" as="geometry">
            <mxPoint as="offset" />
          </mxGeometry>
        </mxCell>
        <mxCell id="kYReCTsqhSqgmGwsNXHj-90" value="est projetée dans" style="ellipse;whiteSpace=wrap;html=1;" parent="1" vertex="1">
          <mxGeometry x="284" y="220" width="120" height="40" as="geometry" />
        </mxCell>
        <mxCell id="-zPosS0i2HtccT8vubnt-5" style="edgeStyle=orthogonalEdgeStyle;rounded=0;orthogonalLoop=1;jettySize=auto;html=1;" edge="1" parent="1" source="kYReCTsqhSqgmGwsNXHj-92" target="-zPosS0i2HtccT8vubnt-1">
          <mxGeometry relative="1" as="geometry" />
        </mxCell>
        <mxCell id="-zPosS0i2HtccT8vubnt-12" value="1, n" style="edgeLabel;html=1;align=center;verticalAlign=middle;resizable=0;points=[];" vertex="1" connectable="0" parent="-zPosS0i2HtccT8vubnt-5">
          <mxGeometry x="-0.0571" y="-1" relative="1" as="geometry">
            <mxPoint as="offset" />
          </mxGeometry>
        </mxCell>
        <mxCell id="kYReCTsqhSqgmGwsNXHj-92" value="type" style="swimlane;whiteSpace=wrap;html=1;fillColor=#FFFFFF;gradientColor=none;swimlaneLine=1;rounded=0;shadow=0;glass=0;" parent="1" vertex="1">
          <mxGeometry x="40" y="260" width="190" height="70" as="geometry" />
        </mxCell>
        <mxCell id="kYReCTsqhSqgmGwsNXHj-93" value="AUTO_INCREMENT&lt;div&gt;VARCHAR&lt;/div&gt;" style="text;html=1;align=center;verticalAlign=middle;resizable=0;points=[];autosize=1;strokeColor=none;fillColor=none;" parent="kYReCTsqhSqgmGwsNXHj-92" vertex="1">
          <mxGeometry x="60" y="30" width="130" height="40" as="geometry" />
        </mxCell>
        <mxCell id="kYReCTsqhSqgmGwsNXHj-94" value="id&lt;div&gt;type&lt;/div&gt;" style="text;html=1;align=left;verticalAlign=middle;resizable=0;points=[];autosize=1;strokeColor=none;fillColor=none;" parent="kYReCTsqhSqgmGwsNXHj-92" vertex="1">
          <mxGeometry x="10" y="30" width="50" height="40" as="geometry" />
        </mxCell>
        <mxCell id="kYReCTsqhSqgmGwsNXHj-100" value="" style="endArrow=none;html=1;rounded=0;entryX=0;entryY=0.75;entryDx=0;entryDy=0;exitX=0.5;exitY=0;exitDx=0;exitDy=0;" parent="1" source="kYReCTsqhSqgmGwsNXHj-90" target="kYReCTsqhSqgmGwsNXHj-59" edge="1">
          <mxGeometry width="50" height="50" relative="1" as="geometry">
            <mxPoint x="370" y="320" as="sourcePoint" />
            <mxPoint x="420" y="270" as="targetPoint" />
          </mxGeometry>
        </mxCell>
        <mxCell id="kYReCTsqhSqgmGwsNXHj-101" value="1, 1" style="edgeLabel;html=1;align=center;verticalAlign=middle;resizable=0;points=[];" parent="kYReCTsqhSqgmGwsNXHj-100" vertex="1" connectable="0">
          <mxGeometry x="0.1624" y="1" relative="1" as="geometry">
            <mxPoint as="offset" />
          </mxGeometry>
        </mxCell>
        <mxCell id="kYReCTsqhSqgmGwsNXHj-102" value="" style="endArrow=classic;html=1;rounded=0;exitX=0.5;exitY=1;exitDx=0;exitDy=0;entryX=0.843;entryY=-0.038;entryDx=0;entryDy=0;endFill=1;entryPerimeter=0;" parent="1" source="kYReCTsqhSqgmGwsNXHj-90" target="kYReCTsqhSqgmGwsNXHj-73" edge="1">
          <mxGeometry width="50" height="50" relative="1" as="geometry">
            <mxPoint x="420" y="270" as="sourcePoint" />
            <mxPoint x="370" y="320" as="targetPoint" />
          </mxGeometry>
        </mxCell>
        <mxCell id="kYReCTsqhSqgmGwsNXHj-103" value="0, n" style="edgeLabel;html=1;align=center;verticalAlign=middle;resizable=0;points=[];" parent="kYReCTsqhSqgmGwsNXHj-102" vertex="1" connectable="0">
          <mxGeometry x="0.0644" y="-2" relative="1" as="geometry">
            <mxPoint x="1" as="offset" />
          </mxGeometry>
        </mxCell>
        <mxCell id="kYReCTsqhSqgmGwsNXHj-113" value="admin" style="swimlane;whiteSpace=wrap;html=1;fillColor=#FFFFFF;gradientColor=none;swimlaneLine=1;rounded=0;shadow=0;glass=0;startSize=23;" parent="1" vertex="1">
          <mxGeometry x="10" y="820" width="250" height="130" as="geometry" />
        </mxCell>
        <mxCell id="kYReCTsqhSqgmGwsNXHj-114" value="AUTO_INCREMENT&lt;div&gt;VARCHAR&lt;/div&gt;&lt;div&gt;VARCHAR&lt;/div&gt;&lt;div&gt;VARCHAR&lt;/div&gt;&lt;div&gt;VARCHAR&lt;/div&gt;&lt;div&gt;VARCHAR&lt;/div&gt;" style="text;html=1;align=center;verticalAlign=middle;resizable=0;points=[];autosize=1;strokeColor=none;fillColor=none;" parent="kYReCTsqhSqgmGwsNXHj-113" vertex="1">
          <mxGeometry x="110" y="30" width="130" height="100" as="geometry" />
        </mxCell>
        <mxCell id="kYReCTsqhSqgmGwsNXHj-115" value="&lt;div&gt;id&lt;/div&gt;&lt;div&gt;firstname&lt;br&gt;&lt;div&gt;name&lt;/div&gt;&lt;/div&gt;&lt;div style=&quot;&quot;&gt;username&lt;/div&gt;&lt;div&gt;email&lt;/div&gt;&lt;div&gt;password&lt;/div&gt;" style="text;html=1;align=left;verticalAlign=middle;resizable=0;points=[];autosize=1;strokeColor=none;fillColor=none;" parent="kYReCTsqhSqgmGwsNXHj-113" vertex="1">
          <mxGeometry x="10" y="30" width="80" height="100" as="geometry" />
        </mxCell>
        <mxCell id="kYReCTsqhSqgmGwsNXHj-116" value="employee" style="swimlane;whiteSpace=wrap;html=1;fillColor=#FFFFFF;gradientColor=none;swimlaneLine=1;rounded=0;shadow=0;glass=0;startSize=23;" parent="1" vertex="1">
          <mxGeometry x="10" y="1020" width="250" height="130" as="geometry" />
        </mxCell>
        <mxCell id="kYReCTsqhSqgmGwsNXHj-117" value="AUTO_INCREMENT&lt;div&gt;VARCHAR&lt;/div&gt;&lt;div&gt;VARCHAR&lt;/div&gt;&lt;div&gt;VARCHAR&lt;/div&gt;&lt;div&gt;VARCHAR&lt;/div&gt;&lt;div&gt;VARCHAR&lt;/div&gt;" style="text;html=1;align=center;verticalAlign=middle;resizable=0;points=[];autosize=1;strokeColor=none;fillColor=none;" parent="kYReCTsqhSqgmGwsNXHj-116" vertex="1">
          <mxGeometry x="110" y="30" width="130" height="100" as="geometry" />
        </mxCell>
        <mxCell id="kYReCTsqhSqgmGwsNXHj-118" value="id&lt;div&gt;firstname&lt;br&gt;&lt;div&gt;name&lt;/div&gt;&lt;/div&gt;&lt;div style=&quot;&quot;&gt;username&lt;/div&gt;&lt;div&gt;email&lt;/div&gt;&lt;div&gt;password&lt;/div&gt;" style="text;html=1;align=left;verticalAlign=middle;resizable=0;points=[];autosize=1;strokeColor=none;fillColor=none;" parent="kYReCTsqhSqgmGwsNXHj-116" vertex="1">
          <mxGeometry x="10" y="30" width="80" height="100" as="geometry" />
        </mxCell>
        <mxCell id="9Si1kQlY4C0V5wrV8bb7-7" value="" style="group" parent="1" vertex="1" connectable="0">
          <mxGeometry x="240" y="-340" width="200" height="112" as="geometry" />
        </mxCell>
        <mxCell id="9Si1kQlY4C0V5wrV8bb7-1" value="opinion" style="swimlane;whiteSpace=wrap;html=1;fillColor=#FFFFFF;gradientColor=none;swimlaneLine=1;rounded=0;shadow=0;glass=0;startSize=23;" parent="9Si1kQlY4C0V5wrV8bb7-7" vertex="1">
          <mxGeometry width="200" height="110" as="geometry" />
        </mxCell>
        <mxCell id="9Si1kQlY4C0V5wrV8bb7-3" value="id&lt;div&gt;idUser&lt;br&gt;&lt;div&gt;idFilm&lt;/div&gt;&lt;/div&gt;&lt;div&gt;note&lt;/div&gt;&lt;div&gt;description&lt;/div&gt;" style="text;html=1;align=left;verticalAlign=middle;resizable=0;points=[];autosize=1;strokeColor=none;fillColor=none;" parent="9Si1kQlY4C0V5wrV8bb7-1" vertex="1">
          <mxGeometry x="10" y="22" width="80" height="90" as="geometry" />
        </mxCell>
        <mxCell id="9Si1kQlY4C0V5wrV8bb7-2" value="AUTO_INCREMENT&lt;div&gt;INT&lt;/div&gt;&lt;div&gt;INT&lt;/div&gt;&lt;div&gt;INT&lt;/div&gt;&lt;div&gt;VARCHAR&lt;/div&gt;" style="text;html=1;align=center;verticalAlign=middle;resizable=0;points=[];autosize=1;strokeColor=none;fillColor=none;" parent="9Si1kQlY4C0V5wrV8bb7-7" vertex="1">
          <mxGeometry x="70" y="22" width="130" height="90" as="geometry" />
        </mxCell>
        <mxCell id="-zPosS0i2HtccT8vubnt-1" value="films_type" style="swimlane;whiteSpace=wrap;html=1;fillColor=#FFFFFF;gradientColor=none;swimlaneLine=1;rounded=0;shadow=0;glass=0;" vertex="1" parent="1">
          <mxGeometry x="40" y="110" width="190" height="80" as="geometry" />
        </mxCell>
        <mxCell id="-zPosS0i2HtccT8vubnt-2" value="AUTO_INCREMENT&lt;div&gt;INT&lt;/div&gt;&lt;div&gt;INT&lt;/div&gt;" style="text;html=1;align=center;verticalAlign=middle;resizable=0;points=[];autosize=1;strokeColor=none;fillColor=none;" vertex="1" parent="-zPosS0i2HtccT8vubnt-1">
          <mxGeometry x="60" y="20" width="130" height="60" as="geometry" />
        </mxCell>
        <mxCell id="-zPosS0i2HtccT8vubnt-3" value="id&lt;div&gt;idFilm&lt;/div&gt;&lt;div&gt;idType&lt;/div&gt;" style="text;html=1;align=left;verticalAlign=middle;resizable=0;points=[];autosize=1;strokeColor=none;fillColor=none;" vertex="1" parent="-zPosS0i2HtccT8vubnt-1">
          <mxGeometry x="10" y="20" width="60" height="60" as="geometry" />
        </mxCell>
        <mxCell id="-zPosS0i2HtccT8vubnt-8" style="edgeStyle=orthogonalEdgeStyle;rounded=0;orthogonalLoop=1;jettySize=auto;html=1;entryX=0.553;entryY=0;entryDx=0;entryDy=0;entryPerimeter=0;" edge="1" parent="1" source="kYReCTsqhSqgmGwsNXHj-41" target="-zPosS0i2HtccT8vubnt-1">
          <mxGeometry relative="1" as="geometry" />
        </mxCell>
        <mxCell id="-zPosS0i2HtccT8vubnt-13" value="1, n" style="edgeLabel;html=1;align=center;verticalAlign=middle;resizable=0;points=[];" vertex="1" connectable="0" parent="-zPosS0i2HtccT8vubnt-8">
          <mxGeometry x="-0.2479" y="4" relative="1" as="geometry">
            <mxPoint as="offset" />
          </mxGeometry>
        </mxCell>
        <mxCell id="-zPosS0i2HtccT8vubnt-14" style="edgeStyle=orthogonalEdgeStyle;rounded=0;orthogonalLoop=1;jettySize=auto;html=1;entryX=0;entryY=0.5;entryDx=0;entryDy=0;endArrow=none;endFill=0;" edge="1" parent="1" source="-zPosS0i2HtccT8vubnt-16" target="-zPosS0i2HtccT8vubnt-24">
          <mxGeometry relative="1" as="geometry" />
        </mxCell>
        <mxCell id="-zPosS0i2HtccT8vubnt-15" value="0, n" style="edgeLabel;html=1;align=center;verticalAlign=middle;resizable=0;points=[];" vertex="1" connectable="0" parent="-zPosS0i2HtccT8vubnt-14">
          <mxGeometry x="-0.0167" y="-1" relative="1" as="geometry">
            <mxPoint as="offset" />
          </mxGeometry>
        </mxCell>
        <mxCell id="-zPosS0i2HtccT8vubnt-25" style="edgeStyle=orthogonalEdgeStyle;rounded=0;orthogonalLoop=1;jettySize=auto;html=1;" edge="1" parent="1" source="-zPosS0i2HtccT8vubnt-16" target="9Si1kQlY4C0V5wrV8bb7-1">
          <mxGeometry relative="1" as="geometry" />
        </mxCell>
        <mxCell id="-zPosS0i2HtccT8vubnt-29" value="0, n" style="edgeLabel;html=1;align=center;verticalAlign=middle;resizable=0;points=[];" vertex="1" connectable="0" parent="-zPosS0i2HtccT8vubnt-25">
          <mxGeometry x="-0.75" relative="1" as="geometry">
            <mxPoint as="offset" />
          </mxGeometry>
        </mxCell>
        <mxCell id="-zPosS0i2HtccT8vubnt-30" value="0, 1" style="edgeLabel;html=1;align=center;verticalAlign=middle;resizable=0;points=[];" vertex="1" connectable="0" parent="-zPosS0i2HtccT8vubnt-25">
          <mxGeometry x="0.45" y="1" relative="1" as="geometry">
            <mxPoint as="offset" />
          </mxGeometry>
        </mxCell>
        <mxCell id="-zPosS0i2HtccT8vubnt-16" value="users" style="swimlane;whiteSpace=wrap;html=1;fillColor=#FFFFFF;gradientColor=none;swimlaneLine=1;rounded=0;shadow=0;glass=0;startSize=23;" vertex="1" parent="1">
          <mxGeometry x="55" y="-540" width="250" height="130" as="geometry" />
        </mxCell>
        <mxCell id="-zPosS0i2HtccT8vubnt-17" value="AUTO_INCREMENT&lt;div&gt;VARCHAR&lt;/div&gt;&lt;div&gt;VARCHAR&lt;/div&gt;&lt;div&gt;VARCHAR&lt;/div&gt;&lt;div&gt;VARCHAR&lt;/div&gt;&lt;div&gt;VARCHAR&lt;/div&gt;" style="text;html=1;align=center;verticalAlign=middle;resizable=0;points=[];autosize=1;strokeColor=none;fillColor=none;" vertex="1" parent="-zPosS0i2HtccT8vubnt-16">
          <mxGeometry x="110" y="30" width="130" height="100" as="geometry" />
        </mxCell>
        <mxCell id="-zPosS0i2HtccT8vubnt-18" value="id&lt;div&gt;firstname&lt;div&gt;name&lt;/div&gt;&lt;/div&gt;&lt;div style=&quot;&quot;&gt;username&lt;/div&gt;&lt;div&gt;email&lt;/div&gt;&lt;div&gt;password&lt;/div&gt;" style="text;html=1;align=left;verticalAlign=middle;resizable=0;points=[];autosize=1;strokeColor=none;fillColor=none;" vertex="1" parent="-zPosS0i2HtccT8vubnt-16">
          <mxGeometry x="10" y="30" width="80" height="100" as="geometry" />
        </mxCell>
        <mxCell id="-zPosS0i2HtccT8vubnt-40" style="edgeStyle=orthogonalEdgeStyle;rounded=0;orthogonalLoop=1;jettySize=auto;html=1;" edge="1" parent="1" source="-zPosS0i2HtccT8vubnt-19" target="kYReCTsqhSqgmGwsNXHj-41">
          <mxGeometry relative="1" as="geometry">
            <mxPoint x="600" y="-90" as="targetPoint" />
            <Array as="points">
              <mxPoint x="665" y="-90" />
            </Array>
          </mxGeometry>
        </mxCell>
        <mxCell id="-zPosS0i2HtccT8vubnt-43" value="0, 1" style="edgeLabel;html=1;align=center;verticalAlign=middle;resizable=0;points=[];" vertex="1" connectable="0" parent="-zPosS0i2HtccT8vubnt-40">
          <mxGeometry x="-0.5985" y="2" relative="1" as="geometry">
            <mxPoint as="offset" />
          </mxGeometry>
        </mxCell>
        <mxCell id="-zPosS0i2HtccT8vubnt-44" value="0, n" style="edgeLabel;html=1;align=center;verticalAlign=middle;resizable=0;points=[];" vertex="1" connectable="0" parent="-zPosS0i2HtccT8vubnt-40">
          <mxGeometry x="0.5654" y="-2" relative="1" as="geometry">
            <mxPoint as="offset" />
          </mxGeometry>
        </mxCell>
        <mxCell id="-zPosS0i2HtccT8vubnt-19" value="order" style="swimlane;whiteSpace=wrap;html=1;fillColor=#FFFFFF;gradientColor=none;swimlaneLine=1;rounded=0;shadow=0;glass=0;" vertex="1" parent="1">
          <mxGeometry x="540" y="-355" width="250" height="207.5" as="geometry" />
        </mxCell>
        <mxCell id="-zPosS0i2HtccT8vubnt-20" value="AUTO_INCREMENT&lt;div&gt;INT&lt;/div&gt;&lt;div&gt;INT&lt;/div&gt;&lt;div&gt;INT&lt;/div&gt;&lt;div&gt;INT&lt;/div&gt;&lt;div&gt;INT&lt;/div&gt;&lt;div&gt;DATE&lt;/div&gt;&lt;div&gt;BOOLEAN&lt;/div&gt;&lt;div&gt;INT&lt;/div&gt;&lt;div&gt;INT&lt;/div&gt;&lt;div&gt;INT&lt;/div&gt;&lt;div&gt;BOOLEAN&lt;/div&gt;" style="text;html=1;align=center;verticalAlign=middle;resizable=0;points=[];autosize=1;strokeColor=none;fillColor=none;" vertex="1" parent="-zPosS0i2HtccT8vubnt-19">
          <mxGeometry x="120" y="20.5" width="130" height="190" as="geometry" />
        </mxCell>
        <mxCell id="-zPosS0i2HtccT8vubnt-21" value="id&lt;div&gt;idUser&lt;br&gt;&lt;div&gt;idFilm&lt;/div&gt;&lt;div&gt;idCinema&lt;br&gt;&lt;div&gt;idSession&lt;/div&gt;&lt;/div&gt;&lt;div&gt;idRoom&lt;/div&gt;&lt;div&gt;date&lt;/div&gt;&lt;div&gt;viewed&lt;/div&gt;&lt;div&gt;placesNumber&lt;/div&gt;&lt;div&gt;PMRPlacesNumber&lt;/div&gt;&lt;div&gt;price&lt;/div&gt;&lt;/div&gt;&lt;div&gt;opinionSent&lt;/div&gt;" style="text;html=1;align=left;verticalAlign=middle;resizable=0;points=[];autosize=1;strokeColor=none;fillColor=none;" vertex="1" parent="-zPosS0i2HtccT8vubnt-19">
          <mxGeometry x="10" y="20.5" width="130" height="190" as="geometry" />
        </mxCell>
        <mxCell id="-zPosS0i2HtccT8vubnt-22" style="edgeStyle=orthogonalEdgeStyle;rounded=0;orthogonalLoop=1;jettySize=auto;html=1;entryX=0;entryY=0.5;entryDx=0;entryDy=0;endArrow=classic;endFill=1;" edge="1" parent="1" source="-zPosS0i2HtccT8vubnt-24" target="-zPosS0i2HtccT8vubnt-19">
          <mxGeometry relative="1" as="geometry" />
        </mxCell>
        <mxCell id="-zPosS0i2HtccT8vubnt-23" value="0, 1" style="edgeLabel;html=1;align=center;verticalAlign=middle;resizable=0;points=[];" vertex="1" connectable="0" parent="-zPosS0i2HtccT8vubnt-22">
          <mxGeometry x="0.0667" relative="1" as="geometry">
            <mxPoint as="offset" />
          </mxGeometry>
        </mxCell>
        <mxCell id="-zPosS0i2HtccT8vubnt-24" value="effectue" style="ellipse;whiteSpace=wrap;html=1;" vertex="1" parent="1">
          <mxGeometry x="410" y="-422.5" width="70" height="40" as="geometry" />
        </mxCell>
        <mxCell id="-zPosS0i2HtccT8vubnt-27" value="donne" style="ellipse;whiteSpace=wrap;html=1;" vertex="1" parent="1">
          <mxGeometry x="214" y="-395" width="70" height="40" as="geometry" />
        </mxCell>
        <mxCell id="-zPosS0i2HtccT8vubnt-31" style="edgeStyle=orthogonalEdgeStyle;rounded=0;orthogonalLoop=1;jettySize=auto;html=1;" edge="1" parent="1" source="9Si1kQlY4C0V5wrV8bb7-1" target="kYReCTsqhSqgmGwsNXHj-41">
          <mxGeometry relative="1" as="geometry" />
        </mxCell>
        <mxCell id="-zPosS0i2HtccT8vubnt-36" value="0, 1" style="edgeLabel;html=1;align=center;verticalAlign=middle;resizable=0;points=[];" vertex="1" connectable="0" parent="-zPosS0i2HtccT8vubnt-31">
          <mxGeometry x="-0.8316" y="1" relative="1" as="geometry">
            <mxPoint as="offset" />
          </mxGeometry>
        </mxCell>
        <mxCell id="-zPosS0i2HtccT8vubnt-37" value="0, n" style="edgeLabel;html=1;align=center;verticalAlign=middle;resizable=0;points=[];" vertex="1" connectable="0" parent="-zPosS0i2HtccT8vubnt-31">
          <mxGeometry x="0.5649" y="1" relative="1" as="geometry">
            <mxPoint as="offset" />
          </mxGeometry>
        </mxCell>
        <mxCell id="-zPosS0i2HtccT8vubnt-32" value="est associé à" style="ellipse;whiteSpace=wrap;html=1;" vertex="1" parent="1">
          <mxGeometry x="220" y="-205" width="90" height="40" as="geometry" />
        </mxCell>
        <mxCell id="-zPosS0i2HtccT8vubnt-41" value="est associé à" style="ellipse;whiteSpace=wrap;html=1;" vertex="1" parent="1">
          <mxGeometry x="450" y="-111" width="90" height="40" as="geometry" />
        </mxCell>
      </root>
    </mxGraphModel>
  </diagram>
</mxfile>
